<svg width="24" height="25" viewBox="0 0 24 25" fill="none" xmlns="http://www.w3.org/2000/svg">
<path fill-rule="evenodd" clip-rule="evenodd" d="M20.9863 12H17V13H20.9863C20.736 17.5725 17.0725 21.236 12.5 21.4863V17.5H11.5V21.4863C6.92752 21.236 3.26403 17.5725 3.01365 13H7V12H3.01365C3.26403 7.42752 6.92752 3.76403 11.5 3.51365V7.5H12.5V3.51365C17.0725 3.76403 20.736 7.42752 20.9863 12ZM12 22.5C17.5228 22.5 22 18.0228 22 12.5C22 6.97715 17.5228 2.5 12 2.5C6.47715 2.5 2 6.97715 2 12.5C2 18.0228 6.47715 22.5 12 22.5Z" fill="#FAFAFA"/>
</svg>
