<svg width="19" height="19" viewBox="0 0 19 19" fill="none" xmlns="http://www.w3.org/2000/svg">
<path d="M9.61963 11.217C9.62981 11.217 9.63936 11.2211 9.64697 11.2278L12.4907 14.0725C12.7962 14.3786 13.1594 14.6214 13.5591 14.7864C13.7187 14.8523 13.8831 14.9048 14.0503 14.9446L11.1938 17.802C10.7459 18.2488 10.139 18.5002 9.50635 18.5002C8.87367 18.5001 8.2667 18.2489 7.81885 17.802H7.81982L5.00635 14.9895C5.23369 14.948 5.45682 14.884 5.67139 14.7952C6.07108 14.6297 6.43354 14.3859 6.73877 14.0793L9.59131 11.2278C9.59899 11.2208 9.6092 11.2171 9.61963 11.217Z" stroke="white"/>
<path d="M9.50049 0.5C9.81373 0.5 10.1242 0.561792 10.4136 0.681641C10.7031 0.801592 10.9664 0.97759 11.188 1.19922L14.0444 4.05566C13.8788 4.0955 13.7162 4.14837 13.5581 4.21387C13.1587 4.37935 12.7956 4.62211 12.4907 4.92871L9.64209 7.77734C9.63648 7.78294 9.62852 7.78702 9.62061 7.78711C9.61258 7.78711 9.60383 7.78301 9.59814 7.77734L6.73975 4.91797C6.43462 4.61161 6.07188 4.36851 5.67236 4.20312C5.45717 4.11404 5.23341 4.04926 5.00537 4.00781L7.81396 1.19922L7.81299 1.19824C8.03447 0.976732 8.29802 0.801556 8.5874 0.681641C8.87683 0.561723 9.1872 0.500039 9.50049 0.5Z" stroke="white"/>
<mask id="path-3-inside-1_734_123" fill="white">
<path d="M18.1544 7.4588L15.9674 5.27184C15.9181 5.292 15.8654 5.30262 15.8121 5.30314H14.8177C14.3002 5.30444 13.8041 5.50995 13.4373 5.87501L10.5876 8.72293C10.331 8.97911 9.98317 9.12299 9.62055 9.12299C9.25793 9.12299 8.91013 8.97911 8.65348 8.72293L5.79292 5.86418C5.42625 5.4989 4.93018 5.29316 4.41261 5.2917H3.19181C3.1415 5.29057 3.09178 5.28059 3.04493 5.26221L0.84413 7.4588C0.303581 8.0005 0 8.73451 0 9.49977C0 10.265 0.303581 10.9991 0.84413 11.5408L3.04012 13.7367C3.08686 13.718 3.13665 13.708 3.187 13.7072H4.41261C4.93017 13.7057 5.42621 13.5 5.79292 13.1348L8.65288 10.2748C9.16997 9.75832 10.0711 9.75832 10.5876 10.2748L13.4373 13.1239C13.8041 13.489 14.3002 13.6945 14.8177 13.6958H15.8121C15.8654 13.6962 15.9181 13.7068 15.9674 13.7271L18.1544 11.5402C18.4225 11.2722 18.6351 10.954 18.7802 10.6038C18.9253 10.2536 19 9.87824 19 9.49917C19 9.12011 18.9253 8.74476 18.7802 8.39456C18.6351 8.04436 18.4225 7.72618 18.1544 7.45819"/>
</mask>
<path d="M15.9674 5.27184L16.6745 4.56473L16.2045 4.09466L15.5891 4.34617L15.9674 5.27184ZM15.8121 5.30314V6.30319L15.8219 6.30309L15.8121 5.30314ZM14.8177 5.30314V4.30314L14.8152 4.30314L14.8177 5.30314ZM13.4373 5.87501L12.7319 5.16625L12.7305 5.16768L13.4373 5.87501ZM10.5876 8.72293L11.2941 9.43068L11.2945 9.43026L10.5876 8.72293ZM8.65348 8.72293L7.9466 9.43026L7.94702 9.43068L8.65348 8.72293ZM5.79292 5.86418L6.49981 5.15685L6.49868 5.15572L5.79292 5.86418ZM4.41261 5.2917L4.41542 4.2917H4.41261V5.2917ZM3.19181 5.2917L3.1693 6.29145L3.18056 6.2917H3.19181V5.2917ZM3.04493 5.26221L3.41014 4.33128L2.80136 4.09245L2.3385 4.55442L3.04493 5.26221ZM0.84413 7.4588L0.137699 6.75101L0.136271 6.75244L0.84413 7.4588ZM0 9.49977H-1H0ZM0.84413 11.5408L0.136271 12.2471L0.137023 12.2479L0.84413 11.5408ZM3.04012 13.7367L2.33301 14.4438L2.79945 14.9103L3.41183 14.6651L3.04012 13.7367ZM3.187 13.7072V12.7072H3.17924L3.17149 12.7074L3.187 13.7072ZM4.41261 13.7072V14.7072L4.41554 14.7072L4.41261 13.7072ZM5.79292 13.1348L6.49859 13.8433L6.50003 13.8419L5.79292 13.1348ZM8.65288 10.2748L7.94619 9.56729L7.94578 9.5677L8.65288 10.2748ZM10.5876 10.2748L9.88051 10.9819L9.88058 10.982L10.5876 10.2748ZM13.4373 13.1239L12.7303 13.8311L12.7319 13.8327L13.4373 13.1239ZM14.8177 13.6958L14.8152 14.6958H14.8177V13.6958ZM15.8121 13.6958L15.8191 12.6958H15.8121V13.6958ZM15.9674 13.7271L15.5865 14.6517L16.203 14.9057L16.6745 14.4342L15.9674 13.7271ZM18.1544 11.5402L17.4474 10.8329L17.4473 10.833L18.1544 11.5402ZM18.8615 6.75169L16.6745 4.56473L15.2603 5.97894L17.4473 8.1659L18.8615 6.75169ZM15.5891 4.34617C15.6568 4.31849 15.7292 4.3039 15.8023 4.30319L15.8219 6.30309C16.0016 6.30134 16.1794 6.26551 16.3458 6.1975L15.5891 4.34617ZM15.8121 4.30314H14.8177V6.30314H15.8121V4.30314ZM14.8152 4.30314C14.0341 4.3051 13.2855 4.61528 12.7319 5.16625L14.1428 6.58378C14.3228 6.40463 14.5662 6.30377 14.8202 6.30314L14.8152 4.30314ZM12.7305 5.16768L9.88073 8.0156L11.2945 9.43026L14.1442 6.58234L12.7305 5.16768ZM9.88115 8.01518C9.81199 8.08422 9.71827 8.12299 9.62055 8.12299V10.123C10.2481 10.123 10.85 9.874 11.2941 9.43068L9.88115 8.01518ZM9.62055 8.12299C9.52283 8.12299 9.42911 8.08422 9.35995 8.01518L7.94702 9.43068C8.39115 9.874 8.99303 10.123 9.62055 10.123V8.12299ZM9.36037 8.0156L6.49981 5.15685L5.08604 6.57151L7.9466 9.43026L9.36037 8.0156ZM6.49868 5.15572C5.94526 4.60442 5.19657 4.2939 4.41542 4.29171L4.4098 6.2917C4.66379 6.29241 4.90723 6.39338 5.08717 6.57263L6.49868 5.15572ZM4.41261 4.2917H3.19181V6.2917H4.41261V4.2917ZM3.21432 4.29196C3.2814 4.29347 3.34768 4.30678 3.41014 4.33128L2.67972 6.19313C2.83588 6.25439 3.0016 6.28767 3.1693 6.29145L3.21432 4.29196ZM2.3385 4.55442L0.137701 6.75101L1.55056 8.16658L3.75136 5.96999L2.3385 4.55442ZM0.136271 6.75244C-0.591354 7.48162 -1 8.46966 -1 9.49977H1C1 8.99936 1.19852 8.51937 1.55199 8.16515L0.136271 6.75244ZM-1 9.49977C-1 10.5299 -0.591354 11.5179 0.136271 12.2471L1.55199 10.8344C1.19852 10.4802 1 10.0002 1 9.49977H-1ZM0.137023 12.2479L2.33301 14.4438L3.74722 13.0296L1.55124 10.8336L0.137023 12.2479ZM3.41183 14.6651C3.3452 14.6918 3.27426 14.706 3.20251 14.7071L3.17149 12.7074C2.99904 12.71 2.82853 12.7443 2.6684 12.8084L3.41183 14.6651ZM3.187 14.7072H4.41261V12.7072H3.187V14.7072ZM4.41554 14.7072C5.1966 14.7049 5.94518 14.3945 6.49859 13.8433L5.08726 12.4262C4.90724 12.6055 4.66374 12.7065 4.40967 12.7072L4.41554 14.7072ZM6.50003 13.8419L9.35999 10.9819L7.94578 9.5677L5.08582 12.4277L6.50003 13.8419ZM9.35958 10.9823C9.48647 10.8556 9.75477 10.8562 9.88051 10.9819L11.2947 9.5677C10.3875 8.66046 8.85348 8.66105 7.94619 9.56729L9.35958 10.9823ZM9.88058 10.982L12.7303 13.8311L14.1444 12.4168L11.2946 9.56763L9.88058 10.982ZM12.7319 13.8327C13.2855 14.3837 14.0341 14.6938 14.8152 14.6958L14.8202 12.6958C14.5662 12.6952 14.3228 12.5943 14.1428 12.4152L12.7319 13.8327ZM14.8177 14.6958H15.8121V12.6958H14.8177V14.6958ZM15.8051 14.6958C15.7301 14.6953 15.6559 14.6803 15.5865 14.6517L16.3483 12.8025C16.1804 12.7333 16.0007 12.6971 15.8191 12.6958L15.8051 14.6958ZM16.6745 14.4342L18.8615 12.2473L17.4473 10.833L15.2603 13.02L16.6745 14.4342ZM18.8614 12.2474C19.2223 11.8865 19.5087 11.4581 19.7041 10.9866L17.8564 10.221C17.7616 10.4499 17.6226 10.6578 17.4474 10.8329L18.8614 12.2474ZM19.7041 10.9866C19.8994 10.515 20 10.0096 20 9.49917H18C18 9.74688 17.9512 9.99217 17.8564 10.221L19.7041 10.9866ZM20 9.49917C20 8.98876 19.8994 8.48334 19.7041 8.01179L17.8564 8.77733C17.9512 9.00617 18 9.25146 18 9.49917H20ZM19.7041 8.01179C19.5087 7.54024 19.2223 7.11181 18.8614 6.75096L17.4474 8.16543C17.6226 8.34056 17.7616 8.54848 17.8564 8.77733L19.7041 8.01179Z" fill="white" mask="url(#path-3-inside-1_734_123)"/>
</svg>
